<?xml version="1.0" standalone="no"?>
<!DOCTYPE svg PUBLIC "-//W3C//DTD SVG 20010904//EN"
 "http://www.w3.org/TR/2001/REC-SVG-20010904/DTD/svg10.dtd">
<svg version="1.0" xmlns="http://www.w3.org/2000/svg"
 width="3360" height="2000" viewBox="0 0 1920.000000 1080.000000"
 preserveAspectRatio="xMidYMid meet">
<metadata>
Created by potrace 1.16, written by Peter Selinger 2001-2019
</metadata>
<g transform="translate(0.000000,1080.000000) scale(0.100000,-0.100000)"
fill="#000000" stroke="none">
<path d="M10025 6118 c-51 -44 -65 -75 -160 -367 l-85 -259 -63 -6 c-34 -4
-237 -18 -452 -32 -214 -13 -393 -28 -397 -32 -9 -9 -89 -244 -85 -248 5 -5
791 -114 824 -114 l32 0 -14 -42 c-8 -24 -45 -142 -84 -263 l-70 -220 -184
-92 -184 -92 -27 -84 c-31 -100 -31 -107 -8 -107 9 0 121 29 247 63 127 35
237 62 245 59 8 -2 80 -85 160 -184 80 -98 152 -186 161 -194 16 -14 19 -8 43
63 14 43 26 89 26 103 -1 14 -40 102 -88 195 l-87 170 86 257 86 257 374 -200
c206 -109 379 -199 386 -199 15 0 88 221 80 242 -3 9 -153 141 -334 294 -180
154 -335 287 -345 296 -16 16 -11 33 73 285 74 223 89 279 89 331 0 104 -49
152 -154 152 -48 0 -60 -4 -91 -32z"/>
</g>
</svg>
