<?xml version="1.0" standalone="no"?>
<!DOCTYPE svg PUBLIC "-//W3C//DTD SVG 20010904//EN"
 "http://www.w3.org/TR/2001/REC-SVG-20010904/DTD/svg10.dtd">
<svg version="1.0" xmlns="http://www.w3.org/2000/svg"
 width="1920.000000pt" height="1080.000000pt" viewBox="0 0 1920.000000 1080.000000"
 preserveAspectRatio="xMidYMid meet">
<metadata>
Created by potrace 1.16, written by Peter Selinger 2001-2019
</metadata>
<g transform="translate(0.000000,1080.000000) scale(0.100000,-0.100000)"
fill="#000000" stroke="none">
<path d="M8997 6466 c-26 -126 -32 -116 83 -116 96 0 100 1 100 22 0 45 -23
153 -36 165 -7 8 -37 13 -71 13 l-58 0 -18 -84z"/>
<path d="M8772 5523 l3 -808 463 -3 462 -2 0 98 c0 108 19 191 51 223 10 10
19 23 19 27 0 12 64 72 77 72 7 0 16 7 21 16 33 59 269 57 330 -3 8 -7 30 -26
49 -41 33 -25 93 -128 93 -159 0 -7 4 -13 9 -13 5 0 9 -6 8 -12 0 -7 1 -57 1
-110 l2 -98 35 0 35 0 0 810 0 810 -830 0 -830 0 2 -807z m1050 537 l-3 -150
150 0 151 0 0 -200 0 -199 -147 -3 -148 -3 0 -148 0 -147 -202 0 -203 0 0 150
0 150 -150 0 -150 0 0 200 0 200 150 0 150 0 0 150 0 150 203 0 202 0 -3 -150z"/>
<path d="M8410 6048 c-40 -11 -62 -27 -55 -39 3 -4 -3 -12 -12 -18 -11 -5 -29
-41 -43 -85 -14 -42 -29 -76 -33 -76 -5 0 -5 -4 -2 -10 3 -5 2 -10 -2 -10 -5
0 -21 -37 -36 -82 -15 -46 -31 -88 -35 -94 -4 -6 -41 -15 -82 -21 -63 -9 -82
-16 -110 -42 l-35 -31 -3 -416 -3 -415 78 3 78 3 8 100 c8 105 29 185 54 210
8 8 12 15 8 15 -3 0 15 23 41 50 26 28 53 50 60 50 7 0 14 5 16 10 13 40 202
54 268 20 40 -20 140 -114 140 -130 0 -6 5 -10 10 -10 7 0 10 178 10 515 l0
515 -142 -1 c-79 0 -159 -5 -178 -11z m260 -253 l0 -175 -210 0 c-229 0 -219
-3 -185 55 7 11 27 66 45 123 18 56 37 102 42 102 4 0 8 7 8 16 0 8 5 24 10
35 10 17 23 19 150 19 l140 0 0 -175z"/>
<path d="M8357 5108 c-21 -6 -51 -23 -67 -39 -15 -16 -32 -29 -37 -29 -11 0
-63 -100 -63 -120 0 -9 -5 -21 -11 -27 -15 -15 -14 -126 0 -131 6 -2 11 -15
11 -28 0 -13 11 -42 25 -64 14 -22 25 -44 25 -48 0 -15 100 -72 126 -72 13 0
24 -4 24 -10 0 -6 27 -10 60 -10 33 0 60 4 60 10 0 6 11 10 25 10 38 0 114 54
137 97 11 21 27 44 36 51 14 11 17 33 17 129 0 82 -4 118 -12 120 -7 3 -22 23
-33 46 -25 50 -95 106 -147 118 -49 11 -128 10 -176 -3z"/>
<path d="M9950 5111 c-45 -15 -87 -40 -93 -56 -4 -8 -14 -15 -22 -15 -9 0 -13
-4 -10 -10 3 -5 2 -10 -3 -10 -15 0 -46 -70 -58 -132 -14 -73 0 -169 33 -220
12 -21 23 -41 23 -46 0 -13 104 -72 128 -72 12 0 22 -4 22 -10 0 -6 26 -10 59
-10 33 0 63 5 66 10 3 6 15 10 25 10 27 0 120 59 120 75 0 8 13 28 29 46 24
26 31 45 37 96 8 75 -1 164 -19 195 -21 37 -78 96 -117 123 -32 22 -52 27
-117 31 -43 2 -89 0 -103 -5z"/>
</g>
</svg>
