<?xml version="1.0" standalone="no"?>
<!DOCTYPE svg PUBLIC "-//W3C//DTD SVG 20010904//EN"
 "http://www.w3.org/TR/2001/REC-SVG-20010904/DTD/svg10.dtd">
<svg version="1.0" xmlns="http://www.w3.org/2000/svg"
 width="1920.000000pt" height="1080.000000pt" viewBox="0 0 1920.000000 1080.000000"
 preserveAspectRatio="xMidYMid meet">
<metadata>
Created by potrace 1.16, written by Peter Selinger 2001-2019
</metadata>
<g transform="translate(0.000000,1080.000000) scale(0.100000,-0.100000)"
fill="#000000" stroke="none">
<path d="M9630 6586 c0 -42 -2 -45 -35 -56 -19 -6 -35 -18 -35 -26 0 -11 28
-14 155 -14 129 0 155 2 155 14 0 8 -12 21 -27 28 -21 10 -29 24 -36 56 l-8
42 -85 0 -84 0 0 -44z"/>
<path d="M9733 6262 c-35 -4 -40 -11 -21 -30 17 -17 11 -134 -7 -145 -8 -4
-12 -14 -8 -22 3 -9 2 -41 -2 -72 l-7 -57 -20 55 c-63 169 -67 186 -54 227 5
14 3 22 -4 22 -15 0 -240 -59 -251 -66 -5 -3 -9 -33 -9 -67 0 -65 35 -484 46
-551 6 -38 6 -38 45 -32 37 6 39 5 39 -19 0 -14 11 -81 24 -148 14 -67 36
-201 51 -297 14 -96 28 -187 31 -202 l6 -28 144 0 c79 0 144 1 144 3 0 1 9 72
20 157 11 85 20 176 20 203 0 26 4 47 9 47 5 0 11 19 14 43 2 23 10 88 17 143
l13 102 39 -5 c21 -3 38 -4 38 -2 0 2 11 94 25 203 14 109 25 215 25 235 0 21
4 41 10 47 5 5 12 44 16 86 l6 77 -38 10 c-22 6 -79 22 -129 36 -115 32 -122
32 -102 1 15 -22 14 -30 -19 -117 -19 -52 -40 -107 -48 -122 -13 -28 -14 -26
-21 50 -9 95 -10 207 -1 221 9 14 -3 18 -41 14z"/>
<path d="M9605 4747 c-7 -16 -2 -111 7 -147 10 -39 30 -60 57 -60 36 0 51 18
58 70 7 48 23 53 23 7 0 -91 95 -106 120 -19 11 41 13 122 4 146 -10 25 -21
19 -27 -14 -6 -25 -11 -30 -37 -30 -24 0 -33 6 -41 27 -7 20 -12 24 -18 14 -7
-11 -11 -9 -20 5 -9 17 -10 15 -11 -13 0 -32 -2 -33 -40 -33 -37 0 -42 3 -55
33 -11 27 -15 29 -20 14z"/>
<path d="M9512 4265 c-146 -41 -173 -95 -72 -150 l55 -30 235 0 235 0 60 30
c47 23 61 36 63 55 4 33 -28 62 -93 85 -69 25 -404 32 -483 10z"/>
</g>
</svg>
