<?xml version="1.0" standalone="no"?>
<!DOCTYPE svg PUBLIC "-//W3C//DTD SVG 20010904//EN"
 "http://www.w3.org/TR/2001/REC-SVG-20010904/DTD/svg10.dtd">
<svg version="1.0" xmlns="http://www.w3.org/2000/svg"
 width="1920.000000pt" height="1080.000000pt" viewBox="0 0 1920.000000 1080.000000"
 preserveAspectRatio="xMidYMid meet">
<metadata>
Created by potrace 1.16, written by Peter Selinger 2001-2019
</metadata>
<g transform="translate(0.000000,1080.000000) scale(0.100000,-0.100000)"
fill="#000000" stroke="none">
<path d="M9100 5890 l0 -470 -25 0 -25 0 0 285 0 285 -130 0 -130 0 0 -340 0
-340 -25 0 -25 0 0 100 0 100 -215 0 -215 0 0 -200 0 -200 -95 0 -95 0 2 -632
3 -633 1453 -3 1452 -2 0 635 0 635 -105 0 -105 0 0 210 0 210 -185 0 -185 0
0 -125 0 -125 -55 0 -55 0 0 415 0 415 -160 0 -160 0 0 -140 0 -140 -90 0 -91
0 3 -155 3 -155 -77 0 -78 0 0 420 0 420 -295 0 -295 0 0 -470z"/>
</g>
</svg>
