<?xml version="1.0" standalone="no"?>
<!DOCTYPE svg PUBLIC "-//W3C//DTD SVG 20010904//EN"
 "http://www.w3.org/TR/2001/REC-SVG-20010904/DTD/svg10.dtd">
<svg version="1.0" xmlns="http://www.w3.org/2000/svg"
 width="1920.000000pt" height="1080.000000pt" viewBox="0 0 1920.000000 1080.000000"
 preserveAspectRatio="xMidYMid meet">
<metadata>
Created by potrace 1.16, written by Peter Selinger 2001-2019
</metadata>
<g transform="translate(0.000000,1080.000000) scale(0.100000,-0.100000)"
fill="#000000" stroke="none">
<path d="M10180 6881 c-25 -4 -67 -15 -95 -24 -27 -9 -78 -24 -112 -34 -35 -9
-63 -21 -63 -25 0 -4 -8 -8 -19 -8 -10 0 -30 -9 -44 -20 -14 -11 -42 -27 -61
-35 -52 -22 -146 -84 -153 -101 -3 -8 -11 -14 -18 -14 -18 0 -179 -160 -247
-245 -31 -38 -70 -97 -88 -130 -17 -33 -41 -76 -52 -95 -20 -34 -42 -96 -90
-250 -21 -70 -23 -91 -22 -318 0 -152 4 -246 11 -250 5 -4 16 -36 23 -72 7
-36 18 -74 24 -85 5 -11 11 -22 11 -25 4 -23 32 -93 52 -127 14 -24 22 -43 19
-43 -4 0 3 -10 14 -22 20 -22 52 -81 55 -103 0 -5 6 -9 13 -8 6 2 19 -9 29
-25 29 -46 141 -163 216 -226 88 -73 121 -97 143 -102 13 -3 24 -10 24 -15 0
-5 6 -9 14 -9 7 0 19 -6 25 -14 7 -8 23 -17 38 -21 14 -3 32 -12 39 -20 28
-27 236 -88 322 -93 45 -2 85 -8 88 -13 7 -12 274 -12 274 0 0 4 39 11 88 14
98 6 259 54 352 106 30 17 78 42 105 57 51 27 157 111 230 182 71 70 194 220
209 257 9 20 25 48 36 62 11 14 20 32 20 40 0 8 6 21 14 29 25 25 87 235 102
344 16 123 19 330 4 330 -6 0 -10 28 -10 63 0 34 -6 85 -14 112 -48 167 -61
203 -83 238 -13 21 -28 48 -34 60 -25 58 -106 177 -124 184 -8 3 -15 11 -15
18 0 15 -184 205 -199 205 -5 0 -33 20 -61 44 -29 25 -78 57 -109 71 -31 15
-63 32 -71 39 -24 20 -120 58 -185 73 -33 7 -76 21 -95 30 -29 14 -74 17 -260
19 -124 1 -245 -1 -270 -5z m425 -217 c50 -8 107 -18 128 -21 20 -3 37 -9 37
-14 0 -4 19 -13 43 -20 78 -21 301 -156 315 -191 2 -5 17 -15 33 -23 16 -9 48
-41 71 -73 23 -31 57 -72 75 -90 18 -18 33 -39 33 -46 0 -7 8 -24 18 -37 36
-47 83 -155 102 -233 11 -44 24 -82 30 -86 18 -11 13 -393 -5 -465 -41 -155
-62 -210 -130 -333 -55 -100 -257 -306 -346 -353 -135 -72 -198 -101 -237
-110 -26 -7 -55 -16 -65 -21 -53 -27 -391 -40 -502 -19 -73 14 -239 62 -245
71 -5 7 -49 32 -128 73 -98 51 -248 199 -348 342 -29 43 -104 198 -104 217 0
8 -11 46 -25 82 -24 63 -25 79 -25 254 -1 103 2 203 5 222 15 89 60 223 97
290 17 30 40 73 52 95 12 22 31 51 43 65 11 14 41 48 65 76 23 28 66 70 93 92
28 23 61 51 75 63 14 11 45 32 70 46 25 14 56 33 70 42 56 36 191 82 283 98
53 9 97 19 97 22 0 11 236 0 325 -15z"/>
<path d="M10302 6495 c-48 -21 -130 -111 -138 -151 -3 -19 -4 -65 -2 -103 3
-64 7 -73 44 -117 62 -73 109 -94 214 -94 105 0 152 21 214 94 l41 48 0 97 c0
94 -1 97 -34 138 -18 23 -52 55 -74 70 -36 25 -50 28 -136 31 -68 1 -106 -2
-129 -13z"/>
<path d="M10195 5858 c-3 -7 -4 -285 -3 -618 l3 -605 218 -3 217 -2 0 620 0
620 -215 0 c-163 0 -217 -3 -220 -12z"/>
</g>
</svg>
