<?xml version="1.0" standalone="no"?>
<!DOCTYPE svg PUBLIC "-//W3C//DTD SVG 20010904//EN"
 "http://www.w3.org/TR/2001/REC-SVG-20010904/DTD/svg10.dtd">
<svg version="1.0" xmlns="http://www.w3.org/2000/svg"
 width="1920.000000pt" height="1080.000000pt" viewBox="0 0 1920.000000 1080.000000"
 preserveAspectRatio="xMidYMid meet">
<metadata>
Created by potrace 1.16, written by Peter Selinger 2001-2019
</metadata>
<g transform="translate(0.000000,1080.000000) scale(0.100000,-0.100000)"
fill="#000000" stroke="none">
<path d="M9228 6980 c-27 -16 -48 -34 -48 -39 0 -5 -14 -22 -31 -39 -29 -28
-32 -38 -37 -106 -6 -95 4 -162 29 -187 10 -10 19 -23 19 -28 0 -5 18 -25 39
-44 44 -40 101 -54 175 -43 35 6 53 17 94 60 61 64 76 110 71 223 -4 71 -7 84
-42 136 -22 32 -46 61 -55 64 -10 4 -20 11 -23 16 -4 5 -38 12 -75 14 -63 3
-73 1 -116 -27z"/>
<path d="M9145 6435 c-44 -19 -81 -40 -83 -45 -2 -6 -10 -10 -19 -10 -8 0 -27
-8 -41 -19 -15 -10 -49 -30 -77 -43 -27 -14 -90 -49 -140 -78 -49 -29 -109
-61 -132 -71 -24 -10 -43 -22 -43 -28 0 -5 -11 -12 -24 -15 -13 -3 -40 -24
-60 -46 -32 -36 -36 -46 -36 -95 0 -57 22 -113 80 -200 15 -22 40 -60 56 -85
16 -25 46 -65 66 -89 21 -24 38 -48 38 -54 0 -22 97 -115 140 -135 32 -15 33
-16 12 -20 -23 -4 -26 -8 -87 -147 -37 -84 -48 -344 -20 -480 20 -95 104 -266
145 -295 17 -12 30 -27 30 -34 0 -8 19 -30 43 -50 107 -94 148 -126 159 -126
6 0 16 -7 22 -15 6 -9 21 -17 34 -18 12 0 22 -4 22 -8 0 -16 165 -69 217 -69
13 0 23 -5 23 -11 0 -7 49 -9 148 -6 159 4 250 21 337 62 28 14 57 25 63 25 7
0 12 5 12 11 0 5 4 8 8 5 10 -6 87 45 130 87 18 18 36 32 39 32 10 0 73 58 73
66 0 4 12 21 28 37 41 45 54 62 45 62 -4 0 -1 5 8 10 9 5 31 43 49 85 l33 75
148 0 c81 0 154 3 163 6 13 5 16 23 16 89 0 104 -8 112 -121 128 l-82 12 -34
50 c-18 28 -50 75 -70 105 -21 30 -36 57 -34 59 1 2 -1 7 -6 10 -5 3 -20 22
-33 41 -13 19 -27 37 -31 40 -12 9 -99 140 -99 149 0 5 -4 11 -9 13 -12 4
-101 135 -101 148 0 6 -7 10 -16 10 -9 0 -27 11 -39 24 -39 42 -84 49 -332 53
l-233 4 0 359 0 359 -54 56 -54 55 -99 0 c-90 0 -105 -3 -178 -35z m22 -281
c-4 -4 -17 -12 -29 -18 -23 -11 -23 -15 -29 -255 l-6 -244 -52 -50 c-49 -46
-52 -52 -42 -76 l12 -26 -20 25 c-11 14 -32 48 -46 76 -26 51 -46 81 -75 113
-9 9 -22 32 -29 50 -8 18 -19 38 -25 45 -6 6 -22 34 -36 61 -14 28 -28 52 -31
55 -3 3 -8 13 -12 22 -5 13 5 23 41 40 26 13 49 26 50 31 2 4 7 5 11 2 5 -2
23 7 41 20 19 14 38 25 42 25 5 0 26 11 48 25 22 14 40 22 40 19 0 -3 11 1 25
10 14 9 25 13 25 9 0 -5 4 -3 8 2 4 6 23 18 42 27 36 17 58 23 47 12z m793
-786 c0 -7 14 -26 30 -42 17 -16 30 -34 30 -39 0 -5 32 -49 70 -97 39 -48 70
-93 70 -98 0 -6 8 -17 18 -24 9 -7 24 -26 32 -43 8 -16 19 -33 25 -37 13 -9 9
-179 -3 -187 -6 -3 -15 -26 -22 -51 -6 -25 -19 -54 -29 -65 -9 -11 -26 -37
-36 -57 -10 -20 -21 -36 -24 -36 -19 2 -33 -3 -27 -9 8 -9 -74 -93 -91 -93 -7
0 -13 -4 -13 -9 0 -24 -200 -108 -222 -95 -5 3 -14 1 -21 -4 -17 -14 -234 -27
-250 -15 -6 5 -32 15 -57 22 -94 26 -211 94 -251 145 -11 14 -26 26 -32 26
-13 1 -77 83 -77 100 0 5 -9 19 -20 30 -56 56 -79 312 -40 460 10 41 24 76 30
78 5 2 10 9 10 17 0 7 18 35 40 63 22 27 40 55 40 61 0 17 820 16 820 -1z"/>
</g>
</svg>
