<?xml version="1.0" standalone="no"?>
<!DOCTYPE svg PUBLIC "-//W3C//DTD SVG 20010904//EN"
 "http://www.w3.org/TR/2001/REC-SVG-20010904/DTD/svg10.dtd">
<svg version="1.0" xmlns="http://www.w3.org/2000/svg"
 width="2920.000000pt" height="3080.000000pt" viewBox="0 0 1920.000000 1080.000000"
 preserveAspectRatio="xMidYMid meet">
<metadata>
Created by potrace 1.16, written by Peter Selinger 2001-2019
</metadata>
<g transform="translate(0.000000,1080.000000) scale(0.100000,-0.100000)"
fill="#000000" stroke="none">
<path d="M9088 6333 c-16 -2 -28 -9 -28 -14 0 -5 -15 -9 -34 -9 -18 0 -52 -6
-74 -14 -22 -8 -61 -18 -87 -21 -25 -4 -51 -13 -58 -20 -7 -6 -18 -10 -25 -7
-6 2 -15 -3 -18 -12 -3 -9 -10 -13 -15 -10 -5 3 -9 0 -9 -5 0 -6 -13 -11 -29
-11 -16 0 -36 -7 -44 -15 -8 -8 -17 -11 -20 -8 -4 3 -20 -6 -37 -21 -17 -14
-38 -26 -46 -26 -8 0 -17 -6 -20 -14 -3 -8 -11 -12 -19 -10 -7 3 -21 -5 -31
-18 -11 -13 -33 -29 -50 -36 -17 -7 -49 -33 -71 -57 -23 -24 -44 -41 -46 -38
-3 2 -17 -12 -32 -31 -15 -20 -31 -33 -36 -31 -4 3 -16 -6 -25 -21 -10 -14
-29 -39 -43 -54 -69 -74 -171 -208 -171 -225 0 -6 -11 -26 -25 -45 -14 -19
-23 -40 -21 -47 3 -7 1 -15 -5 -18 -17 -11 -61 -106 -55 -121 3 -8 1 -14 -4
-14 -13 0 -32 -64 -24 -83 3 -10 1 -17 -5 -17 -6 0 -11 -11 -11 -24 0 -13 -6
-26 -12 -28 -10 -4 -13 -77 -13 -323 0 -246 3 -319 13 -322 6 -3 12 -16 12
-29 0 -13 5 -24 11 -24 6 0 8 -8 5 -17 -9 -29 49 -192 73 -208 6 -3 9 -10 6
-15 -7 -11 74 -150 87 -150 5 0 7 -4 3 -9 -3 -6 1 -13 8 -18 8 -4 26 -26 40
-48 13 -22 34 -48 46 -57 12 -10 21 -25 21 -33 0 -9 11 -20 24 -26 13 -6 29
-22 35 -35 6 -13 22 -29 35 -35 13 -6 29 -22 35 -36 6 -13 16 -23 23 -21 6 2
29 -15 52 -38 22 -24 53 -49 70 -56 17 -7 39 -23 50 -36 10 -13 24 -21 31 -18
8 2 16 -2 19 -10 3 -8 12 -14 20 -14 8 0 29 -12 46 -26 17 -15 33 -24 37 -21
3 3 12 0 20 -8 8 -8 25 -15 39 -15 13 0 33 -9 45 -21 11 -11 27 -18 34 -15 8
3 15 0 18 -7 2 -6 14 -12 28 -13 13 -1 31 -4 39 -7 44 -16 132 -37 158 -37 17
0 32 -6 34 -12 4 -10 63 -14 240 -16 193 -3 248 -1 300 13 34 8 65 20 66 25 2
6 8 8 13 4 5 -3 25 0 45 6 20 7 50 13 67 14 17 1 32 7 35 14 2 6 10 8 18 5 7
-3 31 5 51 17 21 12 59 29 86 37 26 7 47 18 47 24 0 6 4 8 9 5 4 -3 16 3 26
14 9 10 30 22 47 25 16 4 34 15 41 26 6 10 15 19 19 19 4 0 19 10 33 22 14 12
32 23 41 24 9 1 28 13 42 27 33 30 190 187 217 218 71 79 105 127 105 146 0
13 6 23 14 23 17 0 38 32 57 83 7 20 17 37 22 37 4 0 6 4 3 9 -4 5 -1 11 6 13
7 3 13 16 13 29 1 14 16 54 33 90 19 38 34 88 36 117 3 27 12 74 20 103 25 83
23 456 -3 538 -10 33 -17 62 -14 65 10 10 -19 115 -37 131 -11 10 -17 21 -14
26 3 5 -1 19 -8 31 -7 13 -11 27 -10 31 2 5 -15 37 -37 72 -22 34 -38 65 -35
68 9 9 -16 47 -31 47 -8 0 -15 9 -15 19 0 22 -30 61 -162 214 -41 47 -192 177
-206 177 -5 0 -12 7 -16 15 -3 8 -12 15 -21 15 -8 0 -15 5 -15 10 0 6 -6 10
-14 10 -8 0 -16 6 -19 14 -3 8 -23 20 -43 26 -21 7 -49 24 -63 37 -15 13 -46
30 -71 37 -25 7 -62 24 -83 36 -20 12 -44 20 -51 17 -8 -3 -16 -2 -18 3 -3 10
-93 32 -135 34 -13 0 -23 4 -23 7 0 12 -89 31 -120 27 -16 -3 -30 -1 -30 4 0
8 -379 9 -432 1z m1262 -523 c0 -5 15 -25 33 -44 89 -96 122 -138 119 -152 -2
-9 6 -18 17 -21 12 -3 18 -9 15 -14 -3 -5 -1 -9 4 -9 5 0 14 -18 21 -40 6 -22
16 -40 22 -40 6 0 7 -5 4 -10 -3 -6 0 -13 8 -16 8 -3 18 -15 22 -27 12 -37 13
-40 39 -102 14 -33 30 -92 36 -130 6 -38 15 -72 19 -75 26 -16 31 -375 7 -475
-8 -33 -12 -63 -9 -68 3 -5 0 -13 -7 -17 -7 -4 -14 -28 -16 -54 -2 -25 -13
-64 -24 -85 -11 -22 -20 -49 -20 -60 0 -11 -3 -21 -7 -23 -9 -3 -73 -125 -72
-134 1 -3 -9 -18 -22 -32 -13 -15 -23 -30 -21 -34 1 -5 -2 -8 -7 -8 -5 0 -21
-20 -35 -44 -23 -40 -201 -229 -210 -223 -2 1 -15 -12 -30 -30 -15 -18 -33
-30 -41 -27 -7 3 -19 -4 -25 -16 -6 -12 -27 -28 -46 -36 -19 -8 -34 -19 -34
-25 0 -5 -4 -8 -9 -5 -5 4 -22 -5 -38 -18 -16 -14 -41 -28 -56 -31 -15 -4 -27
-11 -27 -17 0 -5 -4 -7 -9 -4 -4 3 -16 -3 -26 -14 -10 -11 -26 -20 -36 -20
-18 0 -176 -47 -194 -58 -5 -4 -14 -7 -20 -8 -5 -1 -44 -7 -85 -14 -82 -13
-122 -14 -377 -6 -94 3 -183 10 -197 16 -14 5 -33 7 -41 4 -8 -4 -15 -2 -15 3
0 6 -42 23 -92 38 -81 25 -158 60 -287 131 -44 24 -55 32 -96 72 -19 17 -38
32 -43 32 -6 0 -66 50 -94 78 -4 4 -18 18 -32 32 -75 72 -110 113 -112 126 -3
21 -24 44 -39 44 -8 0 -16 14 -20 31 -4 17 -15 39 -25 49 -19 19 -53 77 -48
82 1 2 -12 28 -30 59 -18 31 -34 70 -37 85 -13 78 -19 96 -31 101 -7 2 -10 11
-8 18 3 7 0 23 -6 35 -17 32 -27 137 -22 243 2 39 5 47 21 47 15 0 19 -9 23
-54 3 -33 12 -63 25 -80 11 -14 24 -42 27 -61 4 -19 11 -35 17 -35 6 0 8 -4 5
-9 -4 -5 -2 -11 2 -13 5 -1 30 -48 57 -103 42 -86 83 -145 101 -145 15 0 44
22 39 31 -4 5 -2 9 4 9 12 0 41 92 41 132 0 15 4 28 9 28 5 0 15 16 21 35 6
19 19 37 30 40 10 3 23 19 30 35 7 16 21 32 31 35 11 4 27 19 37 33 9 15 27
35 39 45 12 10 24 26 28 36 9 31 46 41 91 24 72 -26 99 -33 131 -33 24 0 31
-4 27 -14 -5 -14 6 -14 104 -1 19 2 39 0 45 -5 7 -6 37 -28 67 -49 30 -22 61
-45 68 -51 6 -6 12 -7 13 -3 0 4 5 -3 10 -16 6 -15 15 -21 24 -17 8 3 15 1 15
-4 0 -5 8 -11 18 -14 9 -3 30 -17 46 -31 27 -23 34 -27 52 -24 4 0 10 -5 15
-13 7 -11 11 -10 23 2 12 12 13 23 4 58 -6 23 -14 42 -19 42 -5 0 -9 13 -9 29
l0 29 63 -5 62 -4 29 50 c17 28 31 58 32 67 2 9 7 20 13 23 7 4 5 22 -5 51 -9
25 -16 69 -15 98 0 28 -3 52 -8 52 -4 0 -8 12 -9 28 0 15 -2 44 -4 65 -3 20
-1 37 3 37 4 0 10 12 13 28 25 100 24 100 54 94 15 -3 30 -10 34 -16 15 -23
32 16 45 101 7 47 17 90 24 93 6 4 34 10 62 14 29 3 53 10 55 16 2 5 14 10 26
10 17 0 29 15 55 68 19 37 35 78 37 91 6 48 26 80 58 90 108 33 203 42 216 21
3 -6 34 -13 68 -16 34 -4 62 -11 62 -15 0 -5 7 -9 15 -9 14 0 29 13 63 54 10
12 18 14 32 6 11 -6 20 -15 20 -20z"/>
<path d="M9636 5294 c-20 -26 -37 -51 -37 -55 -3 -17 -6 -25 -43 -101 -26 -53
-36 -84 -31 -98 7 -21 9 -20 47 18 22 22 41 47 42 56 1 9 13 28 26 43 14 16
24 31 22 36 -1 4 2 7 8 7 5 0 15 19 22 43 6 23 17 45 23 49 7 5 7 13 -1 25
-20 32 -41 26 -78 -23z"/>
<path d="M9871 4456 c-8 -9 -10 -16 -5 -16 5 0 3 -4 -4 -8 -7 -5 -16 -26 -19
-48 -12 -71 -34 -74 -101 -10 -27 26 -34 28 -42 16 -5 -8 -10 -11 -10 -6 0 5
-11 -1 -25 -14 -14 -13 -25 -21 -25 -18 0 3 -21 -1 -47 -9 -27 -8 -82 -14
-123 -14 -111 1 -134 -5 -170 -51 -18 -21 -33 -45 -35 -51 -9 -38 -18 -57 -26
-57 -5 0 -9 -9 -9 -20 0 -11 -4 -20 -10 -20 -16 0 -12 -24 14 -81 13 -30 27
-73 31 -95 6 -40 8 -42 52 -48 71 -9 183 -7 183 4 0 6 7 10 15 10 8 0 15 -4
15 -9 0 -10 133 -61 161 -61 10 0 19 -5 19 -11 0 -5 4 -8 9 -5 5 3 12 -1 15
-10 3 -8 10 -12 16 -9 5 3 10 1 10 -4 0 -12 61 -15 97 -5 12 3 25 14 28 24 3
9 17 22 30 28 14 7 31 24 37 39 7 16 20 33 28 40 8 6 24 28 35 50 11 21 27 43
35 50 8 7 11 13 5 13 -5 0 -4 4 3 8 7 5 13 29 14 55 2 37 -2 52 -20 70 -33 32
-70 86 -89 130 -9 20 -20 37 -25 37 -4 0 -8 8 -8 19 0 10 -7 24 -15 31 -8 7
-13 15 -11 19 2 3 -1 17 -8 29 -11 21 -14 22 -25 8z"/>
<path d="M8378 4336 c-62 -59 -75 -76 -65 -85 8 -6 17 -8 20 -4 4 3 7 1 7 -5
0 -6 16 -14 36 -18 29 -5 40 -2 60 17 13 12 24 19 24 16 0 -4 8 0 18 8 9 8 36
28 60 45 23 16 42 36 42 44 0 22 -27 38 -65 39 -19 1 -35 5 -35 9 0 22 -32 1
-102 -66z"/>
<path d="M10364 4218 c-10 -24 -24 -47 -31 -51 -8 -5 -11 -12 -8 -18 4 -5 1
-9 -4 -9 -6 0 -11 -5 -11 -11 0 -10 -26 -42 -32 -38 -7 5 -48 -13 -48 -21 0
-4 -10 -11 -22 -14 -23 -6 -95 -108 -90 -126 1 -6 -2 -10 -8 -10 -18 0 -10
-50 12 -72 19 -19 22 -20 33 -5 7 9 14 14 17 12 8 -8 27 19 31 42 1 11 11 33
22 49 11 16 19 32 18 35 -1 4 9 10 22 13 14 4 25 11 25 16 0 6 6 10 14 10 8 0
21 8 28 19 7 10 23 21 35 25 60 19 122 91 123 144 0 22 0 22 -27 5 -15 -10
-24 -13 -21 -7 6 9 -41 54 -55 54 -2 0 -12 -19 -23 -42z"/>
</g>
</svg>
