<?xml version="1.0" standalone="no"?>
<!DOCTYPE svg PUBLIC "-//W3C//DTD SVG 20010904//EN"
 "http://www.w3.org/TR/2001/REC-SVG-20010904/DTD/svg10.dtd">
<svg version="1.0" xmlns="http://www.w3.org/2000/svg"
 width="1920.000000pt" height="1080.000000pt" viewBox="0 0 1920.000000 1080.000000"
 preserveAspectRatio="xMidYMid meet">
<metadata>
Created by potrace 1.16, written by Peter Selinger 2001-2019
</metadata>
<g transform="translate(0.000000,1080.000000) scale(0.100000,-0.100000)"
fill="#000000" stroke="none">
<path d="M8455 5612 c-50 -18 -108 -68 -133 -116 -20 -40 -26 -70 -30 -139 -4
-84 -3 -91 29 -154 l33 -65 -18 -32 c-46 -77 -48 -86 -44 -174 4 -73 9 -94 31
-129 43 -68 96 -96 194 -101 45 -2 93 -2 106 2 31 7 114 80 132 117 23 43 19
173 -6 229 l-20 45 28 -28 c37 -35 63 -36 63 -1 0 22 3 24 23 18 12 -4 28 -15
35 -25 19 -27 57 -24 80 6 l20 25 446 0 446 0 0 -30 c0 -20 -5 -30 -15 -30
-12 0 -15 -13 -15 -55 0 -42 3 -55 15 -55 8 0 15 -9 15 -20 0 -11 -7 -20 -15
-20 -12 0 -15 -15 -15 -75 l0 -75 40 0 c38 0 40 2 40 30 0 30 1 30 55 30 54 0
55 0 55 -30 0 -28 3 -30 35 -30 l35 0 0 75 c0 68 -2 75 -20 75 -11 0 -20 7
-20 15 0 8 9 15 20 15 18 0 20 7 20 60 0 53 -2 60 -20 60 -16 0 -20 7 -20 30
l0 30 69 0 c87 0 103 13 99 78 -6 84 31 80 -656 85 -537 4 -605 6 -621 21 -24
21 -47 20 -78 -4 -14 -11 -32 -20 -39 -20 -8 0 -14 9 -14 20 0 15 -7 20 -26
20 -17 0 -28 -6 -31 -20 -3 -11 -11 -20 -19 -20 -10 0 -8 11 8 46 16 37 19 62
16 119 -4 80 -25 119 -95 172 -32 25 -46 28 -117 30 -45 1 -90 -1 -101 -5z
m183 -119 c15 -13 23 -35 28 -85 6 -65 5 -68 -15 -68 -14 0 -21 6 -21 18 0 43
-61 58 -81 21 -24 -45 12 -119 58 -119 23 0 23 -1 9 -22 -22 -31 -22 -135 1
-160 15 -17 15 -18 -3 -18 -11 0 -30 -7 -42 -16 -20 -14 -23 -23 -20 -67 3
-46 6 -52 26 -55 28 -4 52 14 52 40 0 30 24 16 30 -18 8 -43 -5 -106 -26 -121
-22 -16 -153 -18 -187 -2 -34 16 -49 46 -49 101 1 28 3 52 5 54 7 8 52 7 76 0
l23 -8 -6 73 c-9 92 -9 136 -1 224 l7 70 -44 -3 c-43 -4 -44 -3 -54 35 -13 48
1 97 35 124 32 26 169 27 199 2z"/>
</g>
</svg>
