<?xml version="1.0" standalone="no"?>
<!DOCTYPE svg PUBLIC "-//W3C//DTD SVG 20010904//EN"
 "http://www.w3.org/TR/2001/REC-SVG-20010904/DTD/svg10.dtd">
<svg version="1.0" xmlns="http://www.w3.org/2000/svg"
 width="1920.000000pt" height="1080.000000pt" viewBox="0 0 1920.000000 1080.000000"
 preserveAspectRatio="xMidYMid meet">
<metadata>
Created by potrace 1.16, written by Peter Selinger 2001-2019
</metadata>
<g transform="translate(0.000000,1080.000000) scale(0.100000,-0.100000)"
fill="#000000" stroke="none">
<path d="M9890 5707 c-120 -49 -130 -51 -235 -55 -105 -3 -116 -1 -255 39
-126 37 -161 43 -265 47 -103 3 -129 1 -183 -17 -107 -36 -192 -97 -192 -138
l0 -23 149 1 c161 0 186 -4 391 -69 112 -35 120 -36 270 -36 146 0 159 1 230
28 85 33 139 67 191 123 59 63 79 94 79 124 0 25 -4 29 -27 28 -16 -1 -84 -24
-153 -52z m-560 -47 c205 -57 224 -60 331 -60 115 0 198 19 294 67 l49 25 -34
-38 c-43 -50 -114 -98 -187 -126 -51 -20 -75 -23 -208 -22 l-150 0 -155 49
c-148 45 -162 48 -298 52 l-143 5 38 20 c128 69 282 78 463 28z"/>
<path d="M10581 5374 c-218 -99 -319 -106 -572 -44 -236 58 -381 55 -511 -11
-53 -27 -108 -78 -108 -100 0 -18 9 -19 153 -18 147 0 156 -1 277 -37 260 -77
253 -76 400 -71 118 4 144 8 205 32 82 33 136 68 186 122 59 63 79 94 79 124
0 25 -4 29 -27 28 -16 0 -52 -11 -82 -25z m8 -81 c-89 -103 -215 -154 -381
-154 -114 0 -154 8 -348 68 -103 32 -129 36 -259 41 l-144 4 69 31 c62 27 82
31 189 35 114 4 130 2 291 -37 216 -52 336 -56 461 -16 43 14 94 34 113 45 19
10 37 19 39 20 1 0 -12 -17 -30 -37z"/>
<path d="M9860 4987 c-120 -49 -130 -51 -235 -55 -101 -3 -121 0 -250 33 -283
75 -482 56 -610 -56 -19 -17 -35 -40 -35 -50 0 -18 9 -19 149 -18 161 0 187
-4 391 -69 110 -34 121 -36 265 -36 141 -1 155 1 232 28 50 18 103 46 137 72
115 91 177 206 109 203 -16 -1 -84 -24 -153 -52z m-487 -71 c226 -59 392 -49
552 31 l49 25 -34 -38 c-43 -50 -114 -98 -187 -126 -51 -20 -76 -23 -203 -23
-144 1 -146 1 -305 49 -149 45 -170 49 -304 55 l-143 6 73 29 c137 53 276 50
502 -8z"/>
</g>
</svg>
