<?xml version="1.0" standalone="no"?>
<!DOCTYPE svg PUBLIC "-//W3C//DTD SVG 20010904//EN"
 "http://www.w3.org/TR/2001/REC-SVG-20010904/DTD/svg10.dtd">
<svg version="1.0" xmlns="http://www.w3.org/2000/svg"
 width="1920.000000pt" height="1080.000000pt" viewBox="0 0 1920.000000 1080.000000"
 preserveAspectRatio="xMidYMid meet">
<metadata>
Created by potrace 1.16, written by Peter Selinger 2001-2019
</metadata>
<g transform="translate(0.000000,1080.000000) scale(0.100000,-0.100000)"
fill="#000000" stroke="none">
<path d="M9237 6451 c-104 -34 -208 -126 -253 -224 -32 -72 -42 -158 -49 -466
l-6 -265 -49 -53 c-58 -63 -94 -125 -128 -218 -21 -59 -26 -93 -29 -211 -5
-123 -2 -150 17 -220 37 -134 123 -261 245 -361 138 -114 253 -153 445 -153
192 0 307 39 445 153 122 100 208 227 245 361 19 68 21 98 18 220 -3 125 -7
150 -33 221 -37 103 -91 185 -171 260 l-64 60 -6 285 c-6 291 -11 335 -46 405
-34 66 -132 159 -201 191 -57 27 -73 29 -192 31 -105 2 -141 -1 -188 -16z
m329 -155 c56 -26 96 -71 118 -132 9 -26 16 -117 21 -275 l7 -237 -82 24 c-66
19 -106 24 -199 24 -126 0 -199 -14 -290 -55 l-53 -25 7 203 c11 343 31 405
144 465 59 30 68 32 169 32 92 0 114 -4 158 -24z m32 -894 c60 -19 146 -75
203 -131 79 -79 129 -183 137 -287 17 -202 -24 -331 -142 -450 -119 -118 -248
-159 -450 -142 -216 18 -400 201 -438 433 -13 80 -11 111 13 220 34 150 182
309 331 357 80 25 265 25 346 0z"/>
<path d="M9264 5370 c-69 -24 -122 -59 -184 -120 -103 -104 -142 -196 -144
-340 -1 -147 39 -245 144 -350 111 -111 197 -144 363 -138 85 3 125 9 167 26
104 41 231 167 271 269 34 87 39 259 9 347 -44 135 -170 260 -308 307 -75 26
-245 25 -318 -1z m288 -271 c70 -45 102 -131 87 -230 -19 -120 -125 -188 -260
-168 -89 14 -154 79 -168 168 -15 99 17 185 87 230 66 44 188 44 254 0z"/>
<path d="M9345 5088 c-32 -17 -76 -61 -91 -90 -17 -32 -19 -131 -3 -161 17
-32 60 -77 91 -93 15 -8 52 -14 83 -14 31 0 68 6 83 14 31 16 74 61 91 93 16
30 14 129 -3 161 -16 31 -61 74 -93 91 -28 14 -132 14 -158 -1z"/>
</g>
</svg>
