<?xml version="1.0" standalone="no"?>
<!DOCTYPE svg PUBLIC "-//W3C//DTD SVG 20010904//EN"
 "http://www.w3.org/TR/2001/REC-SVG-20010904/DTD/svg10.dtd">
<svg version="1.0" xmlns="http://www.w3.org/2000/svg"
 width="1920.000000pt" height="1080.000000pt" viewBox="0 0 1920.000000 1080.000000"
 preserveAspectRatio="xMidYMid meet">
<metadata>
Created by potrace 1.16, written by Peter Selinger 2001-2019
</metadata>
<g transform="translate(0.000000,1080.000000) scale(0.100000,-0.100000)"
fill="#000000" stroke="none">
<path d="M9490 7376 c0 -8 6 -16 14 -19 19 -8 25 -60 30 -243 4 -141 3 -153
-18 -190 -12 -21 -30 -40 -40 -42 -11 -2 -30 -17 -43 -33 -33 -38 -63 -45
-303 -69 -113 -12 -221 -23 -240 -26 -44 -7 -75 -46 -73 -94 1 -54 74 -683 80
-700 3 -8 5 -34 4 -57 -2 -24 1 -43 6 -43 5 0 15 -55 22 -122 34 -333 76 -542
117 -583 8 -8 12 -15 7 -15 -4 0 -2 -4 4 -8 7 -4 39 -60 72 -123 92 -180 140
-249 196 -280 63 -36 155 -36 410 0 440 63 440 63 440 165 l0 61 -147 221
c-81 121 -152 233 -157 249 -5 17 -17 116 -26 220 -10 105 -22 195 -27 202 -5
7 -9 31 -7 55 1 24 -1 50 -4 58 -3 8 -22 191 -43 405 -34 365 -39 394 -65 453
-19 43 -33 62 -46 62 -26 0 -63 83 -73 161 -4 35 -13 93 -18 129 -18 112 -23
178 -12 185 24 15 9 35 -25 35 -23 0 -35 -5 -35 -14z m174 -565 c20 -34 36
-143 56 -371 11 -128 57 -578 64 -625 14 -97 27 -203 37 -295 6 -57 15 -113
21 -125 6 -11 68 -105 137 -208 170 -255 162 -241 163 -287 0 -49 -13 -67 -61
-80 -75 -20 -461 -71 -578 -77 -119 -6 -122 -5 -167 21 -31 18 -53 41 -67 69
-12 23 -27 49 -34 57 -7 8 -43 75 -80 147 -37 73 -73 136 -80 140 -27 16 -64
184 -90 402 -14 119 -29 243 -34 276 -5 33 -14 92 -20 130 -22 141 -71 590
-71 651 0 52 3 65 19 73 10 6 126 22 257 36 132 14 248 28 259 31 11 4 34 19
50 34 31 29 70 38 160 36 33 -1 42 -6 59 -35z"/>
<path d="M9380 6673 c-239 -26 -355 -44 -369 -58 -14 -13 -10 -15 42 -15 31 0
107 7 169 16 62 9 155 17 207 18 l93 1 29 -35 29 -34 0 41 c0 69 -44 83 -200
66z"/>
<path d="M9574 6371 c-6 -28 -8 -29 -93 -39 -47 -6 -93 -10 -101 -10 -22 -1
-203 -22 -215 -26 -12 -4 -81 30 -90 44 -3 5 -10 10 -15 10 -15 0 10 -56 35
-80 23 -21 30 -23 109 -16 87 6 347 42 378 52 22 6 29 28 21 64 -7 38 -22 39
-29 1z"/>
<path d="M9310 6245 c-232 -28 -247 -31 -267 -61 -16 -26 -14 -114 6 -244 5
-30 21 -142 36 -249 27 -199 32 -219 68 -258 37 -41 54 -40 387 16 198 34 220
44 220 94 0 61 -60 614 -72 657 -6 25 -19 50 -27 57 -23 18 -138 14 -351 -12z"/>
<path d="M9790 5293 c0 -10 4 -25 10 -33 22 -35 -24 -49 -250 -75 -172 -20
-237 -20 -289 1 -23 9 -45 14 -48 10 -4 -4 13 -27 38 -52 l44 -46 105 5 c104
6 390 50 436 67 32 12 30 36 -6 93 -32 51 -40 57 -40 30z"/>
<path d="M9999 4905 c-6 -6 -90 -19 -358 -55 -206 -27 -247 -38 -225 -60 9 -9
340 29 524 60 187 31 187 31 175 49 -6 11 -107 16 -116 6z"/>
</g>
</svg>
