<?xml version="1.0" standalone="no"?>
<!DOCTYPE svg PUBLIC "-//W3C//DTD SVG 20010904//EN"
 "http://www.w3.org/TR/2001/REC-SVG-20010904/DTD/svg10.dtd">
<svg version="1.0" xmlns="http://www.w3.org/2000/svg"
 width="1280.000000pt" height="720.000000pt" viewBox="0 0 1280.000000 720.000000"
 preserveAspectRatio="xMidYMid meet">
<metadata>
Created by potrace 1.16, written by Peter Selinger 2001-2019
</metadata>
<g transform="translate(0.000000,720.000000) scale(0.100000,-0.100000)"
fill="#000000" stroke="none">
<path d="M5855 4381 c-3 -5 -18 -12 -34 -16 -35 -7 -52 -26 -86 -89 -21 -39
-25 -60 -23 -104 2 -33 8 -57 16 -60 6 -2 12 3 12 12 0 9 5 16 10 16 6 0 10
-9 10 -20 0 -11 16 -37 35 -59 19 -21 35 -42 35 -46 0 -31 -165 63 -199 113
-9 14 -31 40 -49 59 -18 19 -30 38 -27 42 4 3 20 -9 36 -28 16 -19 32 -31 36
-27 5 4 -4 18 -18 30 -15 13 -34 35 -44 49 -12 19 -26 27 -45 27 -35 0 -52
-21 -53 -65 -1 -19 -5 -35 -10 -35 -4 0 -5 9 -2 20 4 12 2 20 -5 20 -6 0 -13
-8 -16 -17 -14 -45 -39 -100 -53 -116 -13 -16 -12 -20 13 -46 16 -16 41 -35
57 -41 37 -16 37 -36 2 -43 -27 -6 -103 -71 -103 -88 0 -5 155 -9 355 -9 195
0 355 2 355 4 0 2 -40 10 -90 17 -49 6 -90 16 -90 20 0 5 -13 9 -29 9 -38 0
-183 44 -236 72 -22 11 -66 37 -98 57 -65 41 -67 50 -21 123 l25 39 72 -75
c40 -42 79 -76 86 -76 7 0 18 -6 25 -12 7 -7 53 -24 102 -38 49 -13 91 -27 94
-31 5 -6 146 -46 200 -56 17 -4 6 8 -35 36 -33 22 -64 41 -69 41 -16 0 -137
91 -176 133 -34 36 -39 48 -39 87 0 36 6 52 31 80 29 32 37 35 99 38 47 3 76
-1 101 -12 45 -21 108 -83 124 -122 14 -34 44 -64 44 -45 0 18 -29 71 -68 125
-34 46 -34 48 -9 31 15 -9 25 -21 22 -25 -5 -9 20 -21 28 -14 9 9 -68 80 -101
94 -29 11 -35 11 -43 -1 -7 -11 -9 -9 -9 9 0 21 -4 22 -69 22 -39 0 -72 -4
-76 -9z"/>
<path d="M6360 4381 c0 -5 -10 -12 -22 -15 -45 -12 -109 -89 -90 -108 7 -7 5
-25 -5 -55 -8 -24 -13 -47 -10 -49 3 -3 10 11 16 31 12 46 71 119 113 139 37
19 134 21 175 4 16 -7 46 -28 67 -46 33 -29 37 -38 43 -98 l6 -66 -86 -84
c-48 -46 -83 -84 -78 -84 5 0 16 6 23 14 8 7 28 21 46 30 18 9 38 25 45 36 6
11 17 20 23 20 5 0 21 18 33 41 19 33 22 52 19 100 -2 32 -11 66 -20 76 -8 10
-18 26 -21 36 -6 15 -3 17 14 12 l21 -7 -21 21 c-11 11 -39 26 -61 33 -22 7
-40 16 -40 20 0 5 -36 8 -80 8 -71 0 -79 -2 -74 -17 5 -17 5 -17 -9 0 -15 19
-27 22 -27 8z"/>
<path d="M6735 4205 c-16 -52 -32 -95 -35 -95 -3 0 -12 -16 -19 -35 -15 -42
-78 -108 -118 -123 -50 -19 -86 -24 -93 -12 -4 7 -26 -2 -61 -26 -30 -20 -63
-40 -74 -45 -17 -7 -16 -8 9 -8 32 -1 158 28 166 38 3 3 27 17 54 31 66 34
131 109 178 205 21 44 43 84 48 89 9 9 100 -13 100 -25 0 -17 -29 -61 -54 -80
-14 -11 -26 -26 -26 -32 0 -17 -138 -151 -178 -173 -19 -11 -48 -27 -65 -36
-31 -17 -23 -18 261 -18 193 0 291 3 287 10 -3 6 -12 10 -18 10 -16 0 -39 37
-28 44 5 3 25 -10 45 -28 41 -39 50 -33 10 7 -47 47 -102 61 -217 53 -56 -3
-119 -9 -139 -12 -39 -6 -45 0 -29 25 8 12 13 12 24 3 12 -10 17 -8 30 10 8
13 34 43 56 68 22 25 40 49 40 55 -3 27 4 43 36 80 25 28 35 35 35 23 0 -10
-16 -36 -36 -58 -42 -46 -39 -53 4 -12 42 38 49 69 23 93 -22 21 -131 63 -139
54 -3 -3 0 -5 6 -5 7 0 12 -4 12 -9 0 -5 -9 -7 -21 -4 -12 3 -18 11 -15 19 3
9 -1 14 -12 14 -13 0 -24 -24 -47 -95z"/>
<path d="M5922 4268 c-7 -7 -12 -29 -12 -49 0 -29 10 -49 45 -92 25 -31 54
-59 65 -62 11 -3 20 -10 20 -15 0 -10 98 -70 113 -70 9 0 -2 70 -13 85 -5 6
-18 34 -29 63 -12 29 -30 63 -41 74 -11 12 -20 25 -20 29 0 5 -10 17 -22 29
-24 22 -87 27 -106 8z"/>
<path d="M6373 4244 c-29 -28 -48 -58 -73 -119 -7 -16 -16 -38 -21 -47 -15
-30 -23 -98 -11 -98 21 0 117 47 170 83 112 76 133 116 89 171 -19 23 -33 30
-73 33 -45 5 -54 2 -81 -23z"/>
<path d="M5248 3800 c-20 -11 -41 -27 -46 -36 -5 -8 -19 -21 -33 -27 -49 -25
-49 -15 -49 -764 l0 -703 550 0 550 0 -2 758 -3 757 -469 3 c-410 2 -467 4
-462 17 3 8 4 15 3 15 -1 -1 -19 -10 -39 -20z"/>
<path d="M7186 3805 c5 -13 -48 -15 -441 -15 l-447 0 8 -22 c5 -13 10 -355 11
-760 l3 -738 489 0 488 0 -5 723 c-4 705 -5 723 -25 751 l-20 28 21 -11 c12
-6 26 -19 31 -29 6 -9 11 -13 11 -9 1 21 -37 60 -76 77 -52 24 -55 24 -48 5z"/>
<path d="M7310 2991 c0 -467 3 -721 10 -721 13 0 12 1428 -1 1436 -5 3 -9
-294 -9 -715z"/>
</g>
</svg>
