<?xml version="1.0" standalone="no"?>
<!DOCTYPE svg PUBLIC "-//W3C//DTD SVG 20010904//EN"
 "http://www.w3.org/TR/2001/REC-SVG-20010904/DTD/svg10.dtd">
<svg version="1.0" xmlns="http://www.w3.org/2000/svg"
 width="1920.000000pt" height="1080.000000pt" viewBox="0 0 1920.000000 1080.000000"
 preserveAspectRatio="xMidYMid meet">
<metadata>
Created by potrace 1.16, written by Peter Selinger 2001-2019
</metadata>
<g transform="translate(0.000000,1080.000000) scale(0.100000,-0.100000)"
fill="#000000" stroke="none">
<path d="M9791 6494 c-103 -44 -195 -173 -406 -569 -37 -69 -106 -185 -159
-268 -20 -31 -39 -65 -43 -75 -3 -9 -35 -65 -70 -125 -34 -59 -63 -110 -63
-113 0 -3 -39 -72 -87 -153 -107 -179 -122 -219 -123 -332 0 -77 3 -92 31
-145 40 -76 63 -100 121 -130 l47 -24 866 0 c833 0 867 1 903 19 43 23 100 80
134 136 22 36 24 51 24 140 -1 99 -2 101 -50 200 -27 55 -71 137 -98 183 -26
46 -49 89 -51 95 -1 6 -6 16 -10 22 -11 14 -104 169 -173 290 -31 55 -83 145
-115 201 -33 55 -59 103 -59 107 0 4 -36 65 -80 136 -43 72 -92 154 -108 184
-64 120 -129 190 -207 223 -45 19 -179 18 -224 -2z m190 -280 c32 -29 193
-290 201 -325 2 -8 7 -17 11 -20 4 -3 16 -20 25 -37 9 -17 53 -92 97 -167 136
-231 227 -389 233 -405 3 -8 16 -29 29 -46 13 -17 50 -83 83 -147 54 -105 60
-123 60 -178 0 -75 -9 -92 -60 -113 -36 -14 -120 -16 -754 -16 -680 0 -716 1
-759 19 -52 22 -57 33 -57 111 0 52 7 73 65 187 35 70 87 164 114 208 28 44
67 109 87 145 20 36 64 112 96 170 33 58 93 161 133 230 41 69 95 163 122 209
68 118 122 184 163 197 38 13 82 4 111 -22z"/>
</g>
</svg>
