<?xml version="1.0" standalone="no"?>
<!DOCTYPE svg PUBLIC "-//W3C//DTD SVG 20010904//EN"
 "http://www.w3.org/TR/2001/REC-SVG-20010904/DTD/svg10.dtd">
<svg version="1.0" xmlns="http://www.w3.org/2000/svg"
 width="1920.000000pt" height="1080.000000pt" viewBox="0 0 1920.000000 1080.000000"
 preserveAspectRatio="xMidYMid meet">
<metadata>
Created by potrace 1.16, written by Peter Selinger 2001-2019
</metadata>
<g transform="translate(0.000000,1080.000000) scale(0.100000,-0.100000)"
fill="#000000" stroke="none">
<path d="M10802 6590 c-50 -58 -95 -83 -242 -134 -58 -20 -124 -46 -148 -56
-63 -29 -132 -97 -161 -160 -14 -30 -27 -58 -29 -61 -2 -5 50 -29 64 -29 1 0
19 29 39 65 29 53 48 73 98 105 34 22 68 40 75 40 8 0 26 6 40 14 15 7 60 24
100 36 39 12 72 27 72 32 0 5 5 6 10 3 6 -4 5 -12 -4 -21 -8 -8 -18 -24 -22
-36 -4 -12 -12 -28 -19 -35 -7 -6 -16 -29 -20 -50 -4 -21 -10 -40 -14 -43 -4
-3 -19 -32 -35 -65 -49 -109 -58 -123 -97 -165 l-39 -42 17 -29 18 -30 51 53
c28 29 66 85 85 123 19 39 37 72 42 73 4 2 7 11 7 20 0 10 7 31 16 47 9 17 25
52 35 78 11 27 39 77 64 113 66 93 97 162 84 185 -16 31 -41 22 -87 -31z"/>
<path d="M8202 6182 c6 -133 30 -188 107 -242 59 -41 70 -62 60 -115 -14 -73
-11 -113 11 -128 11 -8 61 -27 110 -43 l91 -29 -6 -65 c-3 -36 -2 -70 2 -77 4
-6 35 -23 68 -37 108 -47 110 -49 111 -86 1 -19 2 -41 3 -48 2 -24 64 -52 116
-52 74 0 218 -34 315 -73 81 -33 85 -36 82 -63 -5 -47 -62 -153 -176 -326 -90
-136 -158 -177 -406 -247 -41 -11 -94 -23 -117 -27 -24 -4 -43 -10 -43 -15 0
-5 -13 -9 -29 -9 -37 0 -91 -44 -91 -74 0 -29 22 -49 83 -75 26 -11 47 -25 47
-31 0 -26 -24 -106 -34 -112 -8 -6 -8 -8 0 -8 7 0 14 -9 17 -20 4 -16 15 -19
78 -22 71 -3 74 -4 88 -33 8 -16 18 -33 23 -36 6 -3 9 -10 7 -15 -1 -5 9 -15
22 -22 27 -14 78 -8 121 14 32 16 39 11 91 -65 25 -36 33 -41 65 -41 20 0 52
9 71 21 l34 20 36 -35 c45 -44 93 -49 112 -14 7 13 18 28 25 35 7 7 16 33 20
58 3 25 10 45 14 45 5 0 12 26 15 58 4 31 13 84 20 117 7 33 16 86 20 117 8
62 23 82 91 117 53 28 119 38 288 46 155 8 250 33 315 82 20 16 44 33 55 38
36 18 171 187 181 225 1 3 9 22 18 44 9 21 17 54 17 72 0 19 5 34 11 34 8 0
10 46 6 158 -6 164 -8 190 -32 304 -18 82 -19 163 -4 204 13 36 63 69 148 96
67 21 111 48 81 48 -9 0 -27 11 -42 25 -15 14 -30 25 -34 25 -4 0 -49 43 -101
95 -54 53 -107 98 -121 101 -15 4 -31 10 -37 14 -10 8 -52 14 -70 10 -5 -1
-24 -1 -42 0 -85 4 -207 -113 -227 -220 -16 -82 -51 -200 -79 -260 -33 -73
-67 -107 -115 -116 -32 -6 -92 11 -92 26 0 5 -7 15 -15 23 -11 11 -16 51 -20
153 -6 147 -12 194 -25 194 -4 0 -11 11 -14 25 -11 45 -64 92 -151 135 -130
63 -182 71 -695 100 -195 11 -267 26 -409 81 l-74 29 5 -108z m280 -52 c47 -6
90 -9 95 -8 28 8 585 -39 633 -54 93 -28 178 -66 206 -91 57 -49 68 -87 66
-219 -1 -73 2 -118 8 -118 6 0 10 -16 10 -36 0 -42 13 -68 51 -108 26 -27 36
-30 113 -34 l84 -4 48 49 c27 27 54 56 59 64 17 23 85 242 85 272 0 15 4 27 8
27 4 0 13 21 20 46 21 77 106 135 199 135 67 0 102 -21 187 -117 32 -36 68
-69 80 -73 18 -7 13 -11 -32 -27 -65 -23 -123 -71 -147 -120 -16 -33 -16 -48
-5 -165 7 -71 16 -129 20 -129 12 0 32 -279 25 -348 -7 -69 -46 -172 -77 -206
-10 -11 -18 -23 -18 -27 0 -6 -61 -69 -110 -113 -36 -32 -115 -76 -161 -87
-27 -7 -49 -16 -49 -21 0 -4 -43 -8 -96 -8 -154 0 -297 -25 -363 -64 -31 -18
-61 -42 -66 -53 -6 -12 -16 -27 -22 -35 -7 -7 -17 -65 -24 -128 -7 -63 -15
-117 -19 -120 -4 -3 -12 -38 -19 -78 -6 -41 -18 -81 -26 -89 -8 -8 -15 -24
-15 -36 0 -20 -4 -18 -35 16 -40 44 -74 48 -137 17 -51 -25 -58 -25 -58 -2 0
9 -11 34 -25 54 -33 48 -72 57 -143 30 -58 -22 -62 -20 -81 41 -16 47 -35 57
-110 57 -34 0 -61 2 -61 5 0 4 6 18 14 33 27 53 29 89 7 111 -12 12 -32 21
-46 21 -14 0 -25 5 -25 10 0 6 -9 10 -20 10 -11 0 -20 5 -20 10 0 20 61 47
133 60 138 24 281 65 336 96 89 50 213 185 267 292 10 20 22 39 25 42 18 14
98 180 104 215 4 22 12 46 18 53 12 15 16 13 -63 44 -161 64 -286 95 -422 105
l-67 5 2 38 c2 56 -23 84 -97 111 -87 31 -101 42 -87 68 13 24 15 91 2 91 -5
0 -11 9 -14 19 -3 13 -26 25 -78 41 -120 36 -129 42 -129 72 0 14 5 28 11 30
14 5 16 111 1 116 -7 2 -12 10 -12 17 0 7 -26 33 -59 57 -63 47 -81 79 -81
146 l0 41 58 -19 c31 -10 96 -24 144 -30z"/>
</g>
</svg>
