<?xml version="1.0" standalone="no"?>
<!DOCTYPE svg PUBLIC "-//W3C//DTD SVG 20010904//EN"
 "http://www.w3.org/TR/2001/REC-SVG-20010904/DTD/svg10.dtd">
<svg version="1.0" xmlns="http://www.w3.org/2000/svg"
 width="1920.000000pt" height="1080.000000pt" viewBox="0 0 1920.000000 1080.000000"
 preserveAspectRatio="xMidYMid meet">
<metadata>
Created by potrace 1.16, written by Peter Selinger 2001-2019
</metadata>
<g transform="translate(0.000000,1080.000000) scale(0.100000,-0.100000)"
fill="#000000" stroke="none">
<path d="M10234 6315 l-38 -36 -19 25 c-33 46 -58 29 -72 -48 -6 -28 -26 -59
-75 -112 -37 -41 -82 -102 -100 -137 -60 -112 -140 -221 -288 -393 -243 -283
-402 -649 -402 -927 l0 -77 -42 6 c-139 21 -222 114 -220 245 1 37 50 197 78
251 9 17 14 60 14 118 0 114 -25 174 -104 254 -74 74 -105 88 -198 94 -73 4
-78 3 -78 -15 0 -29 36 -55 115 -83 61 -22 122 -73 144 -121 32 -71 28 -144
-15 -264 -54 -151 -54 -154 -54 -248 0 -101 11 -133 70 -199 54 -62 135 -114
215 -139 62 -19 78 -30 142 -93 74 -75 84 -80 218 -114 82 -20 260 -27 307
-11 60 20 67 33 69 142 1 53 5 97 9 97 4 0 10 -45 12 -100 5 -94 7 -103 34
-131 27 -28 32 -30 99 -27 64 3 70 5 73 26 4 30 -12 49 -49 57 -57 13 -27 25
61 25 79 0 90 2 90 18 0 9 -13 25 -28 36 -48 32 -52 53 -52 287 0 122 4 219 9
221 13 4 31 232 31 385 0 122 -1 128 -35 203 -29 65 -35 89 -35 147 0 59 4 74
23 95 21 22 35 26 147 36 111 10 127 14 143 34 9 13 26 34 37 46 28 33 26 95
-3 135 -13 18 -36 57 -51 87 -32 62 -82 120 -105 120 -13 0 -15 10 -13 48 5
72 -15 83 -64 37z m-265 -442 c12 -13 47 -39 79 -59 31 -20 58 -38 60 -39 2
-2 -4 -20 -12 -40 -12 -27 -19 -35 -29 -28 -6 5 -33 26 -58 46 -25 20 -48 37
-51 37 -3 0 -20 13 -37 29 -35 33 -38 58 -15 103 l16 32 13 -30 c7 -16 22 -39
34 -51z"/>
</g>
</svg>
