<?xml version="1.0" standalone="no"?>
<!DOCTYPE svg PUBLIC "-//W3C//DTD SVG 20010904//EN"
 "http://www.w3.org/TR/2001/REC-SVG-20010904/DTD/svg10.dtd">
<svg version="1.0" xmlns="http://www.w3.org/2000/svg"
 width="1920.000000pt" height="1080.000000pt" viewBox="0 0 1920.000000 1080.000000"
 preserveAspectRatio="xMidYMid meet">
<metadata>
Created by potrace 1.16, written by Peter Selinger 2001-2019
</metadata>
<g transform="translate(0.000000,1080.000000) scale(0.100000,-0.100000)"
fill="#000000" stroke="none">
<path d="M8136 6229 c-21 -25 -26 -41 -26 -84 0 -30 7 -70 16 -88 16 -33 15
-36 -10 -81 -14 -26 -26 -56 -26 -66 0 -11 -4 -20 -10 -20 -5 0 -10 -13 -10
-29 0 -17 -11 -42 -25 -59 -14 -17 -25 -32 -25 -35 0 -2 -16 -21 -35 -41 -31
-33 -35 -43 -35 -91 0 -43 5 -59 24 -79 21 -24 30 -26 105 -26 44 0 81 4 81 8
0 5 28 14 63 21 100 21 109 20 120 -14 6 -16 14 -33 20 -36 5 -4 6 -12 2 -19
-4 -7 -2 -16 6 -21 20 -12 21 -516 0 -528 -8 -5 -11 -16 -6 -30 4 -12 2 -21
-4 -21 -6 0 -11 -6 -11 -13 0 -24 -39 -132 -48 -135 -6 -2 -8 -12 -5 -22 3
-11 1 -20 -5 -20 -5 0 -22 -25 -38 -56 -16 -31 -34 -59 -41 -61 -7 -3 -13 -11
-13 -17 0 -15 -77 -86 -93 -86 -7 0 -29 -5 -49 -11 -27 -7 -38 -15 -38 -29 0
-11 -4 -20 -10 -20 -5 0 -10 -9 -10 -20 0 -19 7 -20 103 -20 l104 0 31 44 c18
24 32 48 32 54 0 12 79 94 111 114 17 11 31 34 40 62 7 25 17 46 22 46 5 0 7
7 3 15 -3 8 -1 15 3 15 5 0 17 25 27 56 9 31 23 62 30 69 7 7 10 15 7 19 -4 3
-1 6 5 6 6 0 17 12 24 27 21 45 78 39 78 -8 0 -11 3 -19 8 -19 4 0 4 -73 1
-162 -6 -175 -21 -230 -64 -244 -27 -8 -66 -45 -59 -55 3 -5 0 -9 -5 -9 -6 0
-11 -7 -11 -15 0 -12 18 -15 98 -15 l98 0 14 63 c7 34 16 64 20 67 16 11 42
141 50 244 5 74 12 111 21 117 8 5 11 9 7 9 -20 0 62 69 90 75 17 4 32 10 32
14 0 4 41 7 90 7 50 0 90 -3 90 -7 0 -4 13 -12 29 -19 29 -12 53 -49 66 -102
4 -16 11 -28 15 -28 11 0 30 -91 30 -142 0 -69 -18 -110 -64 -145 -24 -18 -48
-33 -54 -33 -7 0 -12 -4 -12 -9 0 -4 -30 -16 -66 -26 -52 -14 -67 -23 -75 -42
-5 -13 -9 -29 -9 -34 0 -5 48 -9 110 -9 110 0 110 0 110 24 0 28 91 155 129
179 37 24 134 107 144 124 9 15 -12 113 -24 113 -3 0 -6 39 -5 88 1 95 9 111
57 112 15 0 39 -6 53 -14 29 -15 85 -83 86 -103 0 -7 4 -13 10 -13 5 0 20 -21
31 -46 12 -25 28 -48 36 -51 7 -3 13 -10 13 -17 1 -18 34 -53 58 -60 12 -4 22
-12 22 -18 0 -6 12 -8 30 -4 17 3 30 2 30 -3 0 -5 17 -13 37 -18 42 -10 63
-39 63 -90 0 -35 -29 -73 -55 -73 -8 0 -15 -5 -15 -11 0 -5 -4 -7 -10 -4 -5 3
-10 2 -10 -3 0 -6 -13 -15 -30 -21 -20 -6 -30 -17 -30 -30 0 -11 -7 -26 -15
-35 -8 -8 -15 -17 -15 -20 0 -3 53 -6 118 -6 l119 0 16 68 c9 37 19 95 23 130
3 34 11 62 16 62 6 0 8 22 6 50 -1 28 0 50 5 50 4 0 7 27 7 60 l0 60 -91 0
-92 0 6 37 c4 20 10 39 15 42 30 21 45 207 17 217 -8 4 -12 10 -9 15 3 5 2 9
-3 9 -4 0 -13 10 -19 23 -32 63 -49 93 -59 103 -6 7 -17 38 -24 69 -14 63 -11
69 39 82 14 3 28 11 32 17 4 6 40 11 87 11 72 0 82 -2 96 -22 9 -13 21 -23 27
-23 6 0 20 -8 30 -17 29 -26 41 -4 36 68 -3 46 -9 65 -24 76 -10 7 -29 23 -42
33 -12 11 -28 20 -35 21 -6 0 0 4 15 9 30 9 118 -7 118 -21 0 -5 7 -9 16 -9
13 0 15 6 9 28 -3 15 -13 31 -21 35 -8 4 -14 14 -14 21 0 15 -42 56 -57 56 -6
0 -13 6 -16 14 -3 7 -22 17 -43 21 l-38 7 33 29 c31 27 57 34 104 30 38 -4 14
18 -33 29 -27 7 -50 17 -50 22 0 6 -11 8 -25 6 -14 -3 -25 -2 -25 2 0 5 -28
12 -62 16 -35 4 -54 10 -43 12 11 2 31 9 45 15 14 5 35 9 48 8 13 -2 22 3 22
11 0 19 -145 48 -241 48 -100 0 -199 -11 -199 -21 0 -5 6 -9 14 -9 8 0 21 -6
28 -13 7 -7 27 -20 43 -28 53 -27 76 -43 115 -81 21 -21 36 -38 33 -38 -3 0 7
-14 21 -31 14 -17 26 -36 26 -43 0 -7 9 -23 20 -36 26 -30 25 -72 -1 -96 -19
-17 -37 -19 -156 -19 -102 1 -136 4 -143 14 -5 9 -18 12 -39 8 -19 -4 -31 -2
-31 4 0 14 -218 8 -228 -6 -13 -19 -185 -55 -259 -55 -74 0 -203 33 -203 52 0
5 -4 6 -10 3 -5 -3 -10 -2 -10 3 0 6 -13 15 -29 20 -16 6 -39 20 -51 32 -12
12 -24 20 -26 17 -3 -3 -17 6 -31 19 -14 13 -32 24 -39 24 -7 0 -18 9 -24 19
-5 11 -19 22 -29 26 -32 10 -49 48 -56 123 l-8 71 34 20 c22 13 41 37 54 65
11 25 23 46 28 46 4 0 7 25 7 55 0 48 -3 55 -19 55 -11 0 -27 -10 -35 -22 -9
-12 -16 -18 -16 -13 0 6 -3 6 -8 0 -4 -5 -32 -31 -64 -57 -52 -45 -60 -48
-110 -47 -88 1 -140 12 -152 33 -6 10 -20 29 -31 41 -11 12 -26 43 -34 69 -7
25 -17 46 -21 46 -5 0 -20 -14 -34 -31z"/>
</g>
</svg>
