<?xml version="1.0" standalone="no"?>
<!DOCTYPE svg PUBLIC "-//W3C//DTD SVG 20010904//EN"
 "http://www.w3.org/TR/2001/REC-SVG-20010904/DTD/svg10.dtd">
<svg version="1.0" xmlns="http://www.w3.org/2000/svg"
 width="1920.000000pt" height="1080.000000pt" viewBox="0 0 1920.000000 1080.000000"
 preserveAspectRatio="xMidYMid meet">
<metadata>
Created by potrace 1.16, written by Peter Selinger 2001-2019
</metadata>
<g transform="translate(0.000000,1080.000000) scale(0.100000,-0.100000)"
fill="#000000" stroke="none">
<path d="M8832 5414 c-35 -16 -134 -108 -145 -136 -4 -11 -22 -19 -54 -23 -71
-10 -174 -35 -210 -51 -17 -8 -34 -14 -37 -14 -19 0 -157 -72 -162 -84 -3 -8
-16 -17 -28 -20 -13 -3 -54 -35 -91 -71 -38 -36 -72 -65 -77 -65 -5 0 -7 -4
-4 -9 3 -4 -6 -19 -19 -31 -24 -23 -35 -47 -15 -35 18 11 201 7 216 -6 21 -17
17 -29 -8 -29 -34 0 -172 -30 -181 -39 -16 -15 108 -21 425 -21 176 1 321 0
322 -2 1 -2 11 -16 21 -33 10 -16 17 -31 14 -32 -6 -4 60 -46 93 -61 23 -10
29 -9 40 7 7 10 22 20 32 22 15 3 28 17 43 47 0 2 15 -4 32 -13 28 -14 32 -14
37 0 4 8 4 27 2 40 l-5 25 86 0 c97 0 313 24 337 38 11 6 32 1 68 -16 34 -17
74 -26 124 -30 73 -5 88 3 57 28 -8 7 -15 27 -15 44 0 31 1 31 88 54 124 33
203 47 210 36 14 -19 179 -93 222 -100 25 -4 48 -11 51 -16 3 -5 23 -11 45
-15 l39 -6 -38 40 c-20 22 -34 42 -31 46 4 4 3 7 -3 7 -6 0 -42 32 -81 71
l-70 70 40 46 c22 25 47 58 56 72 9 14 22 31 28 36 6 6 28 29 49 53 l38 43
-59 -30 c-32 -17 -64 -31 -71 -31 -7 0 -13 -4 -13 -9 0 -5 -29 -17 -65 -26
-36 -10 -65 -22 -65 -26 0 -5 -49 -9 -110 -9 -60 0 -110 4 -110 9 0 4 -54 18
-119 30 -66 13 -127 28 -137 35 -16 12 -15 14 10 20 19 5 26 12 24 24 -5 25
-125 29 -169 6 -36 -18 -107 -20 -187 -4 -30 5 -111 13 -180 17 -70 3 -121 8
-114 10 6 3 12 18 12 35 0 27 -2 29 -29 23 -25 -5 -29 -3 -35 20 -5 18 -15 27
-36 32 -17 3 -30 9 -30 14 0 12 -19 10 -58 -7z m-312 -262 c0 -4 16 -16 35
-26 19 -11 33 -21 31 -24 -3 -2 4 -13 15 -25 27 -29 26 -118 -1 -157 -34 -48
-83 -71 -146 -71 -36 0 -60 4 -65 13 -7 10 4 14 47 18 47 5 61 11 85 38 24 27
29 41 29 86 0 51 -2 56 -42 90 -37 32 -48 36 -102 37 -34 1 -53 3 -43 6 9 2
17 9 17 14 0 5 32 9 70 9 39 0 70 -3 70 -8z"/>
</g>
</svg>
